<svg width="281" height="101" viewBox="0 0 281 101" fill="none" xmlns="http://www.w3.org/2000/svg">
<path d="M156.359 40.2952C156.322 40.0909 156.177 39.2974 155.568 39.1074C154.993 38.9268 154.297 39.3782 153.986 39.82C153.949 39.8747 153.849 40.022 153.722 40.5327C153.477 41.5162 153.535 42.1909 153.459 42.1956C153.374 42.1956 153.345 41.3642 152.932 40.2952C152.776 39.8961 152.581 39.4067 152.141 38.8698C152.041 38.7487 151.687 38.3306 151.086 37.9196C150.838 37.7509 149.947 37.1547 148.714 36.9694C147.203 36.7437 146.003 37.2592 145.023 37.682C143.768 38.2213 143.001 38.8651 141.859 39.82C141.068 40.4828 140.28 41.1432 139.487 42.1956C139.26 42.4973 138.862 43.0556 137.905 45.0463C137.275 46.3576 136.803 47.2793 136.323 48.6096C135.957 49.6288 135.754 50.3937 135.532 51.2228C135.208 52.439 135.047 53.0638 135.005 53.8359C134.965 54.5889 134.926 55.3206 135.269 56.2114C135.358 56.4466 135.706 57.2947 136.587 58.1119C137.623 59.074 138.764 59.409 139.223 59.5372C139.489 59.6133 140.509 59.8817 141.859 59.7748C143.32 59.6584 144.348 59.1595 145.023 58.8246C145.423 58.625 146.267 58.1713 147.132 57.3992C147.58 56.9978 147.87 56.658 148.45 55.9739C149.151 55.1496 149.689 54.4203 149.768 54.311C150.482 53.3346 150.733 52.8524 150.823 52.8857C150.946 52.9332 150.591 53.9452 150.295 54.7861C150.063 55.4441 150.016 55.5059 149.768 56.2114C149.436 57.1522 149.286 57.7057 149.241 57.8743C148.93 59.0384 148.961 59.3971 148.977 59.5372C149.025 59.934 149.08 60.4067 149.504 60.725C149.86 60.9911 150.39 61.0885 150.823 60.9626C151.54 60.7535 151.819 59.9862 152.141 59.0621C152.468 58.1238 152.499 57.5275 152.668 56.449C152.789 55.6793 152.934 55.0664 153.195 53.8359C153.324 53.2206 153.49 52.4414 153.722 51.4603C154.063 50.016 154.218 49.548 154.513 48.3721C154.632 47.8993 154.64 47.859 155.304 44.8087C155.639 43.2694 155.808 42.4997 155.831 42.4332C156.161 41.5186 156.496 41.0458 156.359 40.2952ZM151.613 43.6209C151.434 45.4905 150.878 46.923 150.559 47.6594C150.372 48.0941 150.084 48.7023 147.923 51.9354C145.956 54.8787 145.582 55.2873 145.023 55.7363C144.047 56.5179 142.574 57.7009 140.805 57.3992C139.344 57.1522 138.321 56 137.905 55.0237C137.467 53.9974 137.697 53.0591 138.168 51.2228C138.25 50.9092 138.545 49.795 139.487 47.6594C140.43 45.519 140.902 44.4476 141.859 43.1458C142.719 41.9771 143.512 40.9223 145.023 40.0576C145.916 39.5469 147.517 38.6323 149.241 39.1074C149.441 39.162 150.414 39.4495 151.086 40.2952C151.268 40.5232 151.835 41.3071 151.613 43.6209Z" fill="white" stroke="white" stroke-width="3" stroke-miterlimit="10"/>
<path d="M217.785 40.2952C217.748 40.0909 217.603 39.2974 216.994 39.1074C216.419 38.9268 215.723 39.3782 215.412 39.82C215.375 39.8747 215.275 40.022 215.148 40.5327C214.903 41.5162 214.961 42.1909 214.885 42.1956C214.8 42.1956 214.771 41.3642 214.357 40.2952C214.202 39.8961 214.007 39.4067 213.566 38.8698C213.466 38.7487 213.113 38.3306 212.512 37.9196C212.264 37.7509 211.373 37.1547 210.139 36.9694C208.629 36.7437 207.429 37.2592 206.449 37.682C205.194 38.2213 204.427 38.8651 203.285 39.82C202.494 40.4828 201.706 41.1432 200.912 42.1956C200.686 42.4973 200.288 43.0556 199.331 45.0463C198.701 46.3576 198.229 47.2793 197.749 48.6096C197.382 49.6288 197.179 50.3937 196.958 51.2228C196.634 52.439 196.473 53.0638 196.431 53.8359C196.391 54.5889 196.352 55.3206 196.694 56.2114C196.784 56.4466 197.132 57.2947 198.012 58.1119C199.049 59.074 200.19 59.409 200.649 59.5372C200.915 59.6133 201.935 59.8817 203.285 59.7748C204.746 59.6584 205.774 59.1595 206.449 58.8246C206.849 58.625 207.693 58.1713 208.558 57.3992C209.006 56.9978 209.296 56.658 209.876 55.9739C210.577 55.1496 211.115 54.4203 211.194 54.311C211.908 53.3346 212.159 52.8524 212.248 52.8857C212.372 52.9332 212.016 53.9452 211.721 54.7861C211.489 55.4441 211.442 55.5059 211.194 56.2114C210.862 57.1522 210.711 57.7057 210.667 57.8743C210.355 59.0384 210.387 59.3971 210.403 59.5372C210.45 59.934 210.506 60.4067 210.93 60.725C211.286 60.9911 211.816 61.0885 212.248 60.9626C212.965 60.7535 213.245 59.9862 213.566 59.0621C213.893 58.1238 213.925 57.5275 214.094 56.449C214.215 55.6793 214.36 55.0664 214.621 53.8359C214.75 53.2206 214.916 52.4414 215.148 51.4603C215.488 50.016 215.644 49.548 215.939 48.3721C216.058 47.8993 216.066 47.859 216.73 44.8087C217.065 43.2694 217.234 42.4997 217.257 42.4332C217.587 41.5186 217.922 41.0458 217.785 40.2952ZM213.039 43.6209C212.86 45.4905 212.304 46.923 211.985 47.6594C211.798 48.0941 211.51 48.7023 209.348 51.9354C207.382 54.8787 207.007 55.2873 206.449 55.7363C205.473 56.5179 203.999 57.7009 202.231 57.3992C200.77 57.1522 199.747 56 199.331 55.0237C198.893 53.9974 199.122 53.0591 199.594 51.2228C199.676 50.9092 199.971 49.795 200.912 47.6594C201.856 45.519 202.328 44.4476 203.285 43.1458C204.144 41.9771 204.938 40.9223 206.449 40.0576C207.342 39.5469 208.942 38.6323 210.667 39.1074C210.867 39.162 211.84 39.4495 212.512 40.2952C212.694 40.5232 213.261 41.3071 213.039 43.6209Z" fill="white" stroke="white" stroke-width="3" stroke-miterlimit="10"/>
<path d="M130.787 40.2952C130.751 40.0909 130.606 39.2974 129.997 39.1074C129.422 38.9268 128.726 39.3782 128.415 39.82C128.378 39.8747 128.278 40.022 128.151 40.5327C127.906 41.5162 127.964 42.1909 127.888 42.1956C127.803 42.1956 127.774 41.3642 127.36 40.2952C127.205 39.8961 127.01 39.4067 126.569 38.8698C126.469 38.7487 126.116 38.3306 125.515 37.9196C125.267 37.7509 124.376 37.1547 123.142 36.9694C121.632 36.7437 120.432 37.2592 119.451 37.682C118.197 38.2213 117.429 38.8651 116.288 39.82C115.497 40.4828 114.709 41.1432 113.915 42.1956C113.689 42.4973 113.291 43.0556 112.334 45.0463C111.703 46.3576 111.232 47.2793 110.752 48.6096C110.385 49.6288 110.182 50.3937 109.961 51.2228C109.637 52.439 109.476 53.0638 109.434 53.8359C109.394 54.5889 109.355 55.3206 109.697 56.2114C109.787 56.4466 110.135 57.2947 111.015 58.1119C112.051 59.074 113.193 59.409 113.652 59.5372C113.918 59.6133 114.938 59.8817 116.288 59.7748C117.748 59.6584 118.777 59.1595 119.451 58.8246C119.852 58.625 120.696 58.1713 121.56 57.3992C122.009 56.9978 122.299 56.658 122.879 55.9739C123.58 55.1496 124.118 54.4203 124.197 54.311C124.911 53.3346 125.162 52.8524 125.251 52.8857C125.375 52.9332 125.019 53.9452 124.724 54.7861C124.492 55.4441 124.445 55.5059 124.197 56.2114C123.865 57.1522 123.714 57.7057 123.67 57.8743C123.358 59.0384 123.39 59.3971 123.406 59.5372C123.453 59.934 123.509 60.4067 123.933 60.725C124.289 60.9911 124.819 61.0885 125.251 60.9626C125.968 60.7535 126.248 59.9862 126.569 59.0621C126.896 58.1238 126.928 57.5275 127.097 56.449C127.218 55.6793 127.363 55.0664 127.624 53.8359C127.753 53.2206 127.919 52.4414 128.151 51.4603C128.491 50.016 128.647 49.548 128.942 48.3721C129.061 47.8993 129.069 47.859 129.733 44.8087C130.068 43.2694 130.236 42.4997 130.26 42.4332C130.59 41.5186 130.925 41.0458 130.787 40.2952ZM126.042 43.6209C125.863 45.4905 125.307 46.923 124.988 47.6594C124.8 48.0941 124.513 48.7023 122.351 51.9354C120.385 54.8787 120.01 55.2873 119.451 55.7363C118.476 56.5179 117.002 57.7009 115.233 57.3992C113.773 57.1522 112.75 56 112.334 55.0237C111.896 53.9974 112.125 53.0591 112.597 51.2228C112.679 50.9092 112.974 49.795 113.915 47.6594C114.859 45.519 115.331 44.4476 116.288 43.1458C117.147 41.9771 117.941 40.9223 119.451 40.0576C120.345 39.5469 121.945 38.6323 123.67 39.1074C123.87 39.162 124.843 39.4495 125.515 40.2952C125.697 40.5232 126.264 41.3071 126.042 43.6209Z" fill="white" stroke="white" stroke-width="3" stroke-miterlimit="10"/>
<path d="M105.215 73.0732C104.561 71.7762 103.296 69.2723 100.47 68.3221C98.8538 67.7781 97.3195 67.942 95.9881 68.0846C94.0531 68.2912 93.4942 69.1536 90.9792 69.5099C88.6751 69.8354 88.2217 69.4648 88.0793 69.2723C87.8447 68.954 87.9396 68.4908 88.0793 67.8185C88.2059 67.2056 88.4273 66.721 88.6066 66.3932C89.1497 65.0581 89.6954 63.723 90.2384 62.3903C93.083 62.673 95.3449 61.5232 95.9881 61.1954C98.5717 59.8794 99.758 57.8649 100.733 56.2067C101.764 54.4559 102.175 52.9403 102.579 51.4556C102.879 50.3486 103.32 48.6857 103.37 46.4669C103.401 45.0915 103.422 43.305 102.579 41.2407C101.83 39.4044 100.95 38.7059 100.47 38.39C99.9768 38.0645 99.5524 37.9149 98.888 37.6773C98.8248 37.656 98.7562 37.6298 98.6771 37.6037C99.8002 36.5228 102.233 34.1021 103.106 32.6886C103.259 32.4392 103.509 31.9902 103.37 31.5009C103.272 31.1564 103.019 30.9236 102.842 30.7882C102.711 30.705 102.429 30.5554 102.052 30.5506C101.237 30.5411 100.762 31.2205 100.733 31.2633C99.9452 32.0449 99.1543 32.8359 98.3608 33.6389C97.2615 34.753 96.1806 35.8624 95.1234 36.967C95.0602 36.9647 94.9969 36.9647 94.9336 36.9647C94.2192 36.967 93.0513 36.9694 91.7701 37.4398C90.0143 38.0836 89.06 39.2309 87.8157 40.7656C86.5529 42.3239 85.8807 43.6471 85.1794 45.0416C84.2251 46.9444 83.5212 48.3484 83.0704 50.2678C82.5221 52.6078 82.0185 54.7648 83.0704 57.157C83.3288 57.7413 84.7075 60.6776 88.111 61.9081L85.9044 66.4288C85.0344 66.5286 83.8639 66.721 82.5432 67.1343C81.6046 67.4265 79.8146 67.999 78.0615 69.2723C77.3708 69.7736 75.1721 71.4151 74.1071 74.261C72.4146 78.7912 74.9375 82.7893 75.4252 83.5257C77.239 86.2671 79.8436 87.4858 82.0159 88.5144C83.8428 89.3791 86.9484 90.8045 91.2429 90.6524C92.3158 90.6144 96.1068 90.384 99.9425 88.0393C101.501 87.0867 104.366 85.3359 105.742 81.8628C107.343 77.8244 105.819 74.2682 105.215 73.0732ZM87.5521 58.5823C85.9835 57.4325 85.5933 55.8955 85.4431 55.2565C85.1557 54.045 85.3534 53.1161 85.7067 51.4556C85.9677 50.2274 86.2972 49.3532 86.7612 48.1298C87.328 46.6332 87.8473 45.5713 88.343 44.5665C88.915 43.4001 89.2103 42.8062 89.6611 42.1909C90.1514 41.5186 90.7261 40.7513 91.7701 40.0529C92.3712 39.6514 93.4125 38.9696 94.9336 38.8651C95.3238 38.839 96.1358 38.7891 97.0426 39.1027C98.8617 39.7298 99.642 41.3333 99.9425 41.9533C100.594 43.2932 100.559 44.4049 100.47 46.4669C100.412 47.7949 100.33 49.4079 99.6789 51.4556C99.0989 53.2777 98.4636 55.3111 96.5154 57.157C95.4741 58.1428 93.771 59.7558 91.2429 59.7701C89.2446 59.782 87.8342 58.789 87.5521 58.5823ZM101.788 81.1502C101.522 81.649 100.109 84.2099 96.779 85.9013C92.7772 87.9348 88.8412 87.2744 87.8157 87.0891C84.3516 86.4596 82.1714 84.7587 81.225 84.0008C80.1441 83.1361 78.3699 81.6799 77.5342 79.2497C77.2469 78.4135 76.8014 77.0594 77.2706 75.4488C77.6212 74.2492 78.3488 73.4486 79.116 72.5981C80.0097 71.6051 80.8217 71.0588 81.7523 70.4316C81.7523 70.4316 82.6802 69.8068 83.8613 69.4814C84.5098 69.3032 84.9343 69.3104 85.1794 69.5099C85.1847 69.5147 85.1873 69.517 85.1926 69.5218C85.1926 69.5218 85.2005 69.5289 85.2058 69.5336C85.5485 69.8544 85.7067 70.434 85.7067 70.434C85.878 71.0683 86.6373 71.5434 86.7612 71.6218C87.2884 71.952 87.8579 72.0351 88.6066 72.1254C89.6453 72.2489 90.4362 72.1919 91.2429 72.1254C92.1207 72.0518 93.0223 71.9781 94.1427 71.6503C95.1524 71.3557 95.2421 71.1752 96.2518 70.9376C97.0136 70.7571 97.6358 70.6122 98.3608 70.7001C99.5023 70.8402 100.264 71.4816 100.733 71.8878C102.405 73.3322 102.734 75.2421 102.842 75.9263C103.227 78.3755 102.244 80.295 101.788 81.1525V81.1502Z" fill="white" stroke="white" stroke-width="3" stroke-miterlimit="10"/>
<path d="M165.849 37.7058C164.842 38.3282 164.776 39.5279 164.531 41.0316C164.293 42.476 163.803 43.8776 163.476 45.3076C163.297 46.094 162.917 47.6523 162.158 50.7714C161.486 53.5318 161.151 54.9097 161.104 55.0475C160.753 56.0547 160.584 57.1071 160.313 58.1357C160.097 58.9576 159.928 59.5658 160.313 60.0361C160.6 60.3877 161.183 60.6514 161.631 60.5113C162.184 60.3378 162.177 59.6608 162.685 58.1357C162.954 57.328 163.305 56.5678 164.003 55.0475C164.109 54.8194 164.499 53.9761 165.058 52.9095C165.598 51.8785 166.381 50.4745 167.431 48.871C168.166 47.7426 168.799 46.7757 169.803 45.5452C170.064 45.2245 171.667 43.2884 174.285 41.5067C175.092 40.958 175.751 40.5898 176.13 40.7941C176.273 40.8725 176.489 41.091 176.394 42.6945C176.31 44.089 176.13 44.8325 176.13 44.8325C175.521 47.3459 175.832 47.3625 175.076 50.5339C174.469 53.0686 174.214 53.2943 173.758 55.5226C173.312 57.701 173.038 58.1001 173.23 58.8484C173.32 59.1952 173.473 59.7986 174.021 60.0361C174.514 60.2499 175.181 60.105 175.603 59.7986C176.397 59.2261 176.13 58.2378 176.394 56.4728C176.499 55.7578 176.515 56.1141 177.185 53.6221C177.441 52.6671 177.712 51.5459 178.239 49.3461C178.948 46.3933 178.988 46.1391 179.03 45.7828C179.117 45.0273 179.088 44.013 179.03 41.9819C178.996 40.7869 178.948 40.117 178.503 39.3687C178.292 39.0148 177.915 38.4019 177.185 38.181C176.531 37.9838 175.901 38.1928 175.339 38.4185C173.236 39.2666 171.744 40.4995 171.121 41.0316C170.273 41.7562 169.318 42.5805 168.222 43.8823C166.437 45.9989 165.83 47.5312 165.585 47.4457C165.274 47.3364 165.904 44.7565 166.64 42.6945C166.721 42.4617 167.196 41.1409 167.431 39.3687C167.581 38.2332 167.531 37.6702 167.167 37.4683C166.793 37.2592 166.194 37.492 165.849 37.7058Z" fill="white" stroke="white" stroke-width="3" stroke-miterlimit="10"/>
<path d="M72.3515 60.2285C73.3586 59.6061 73.4245 58.4065 73.6696 56.9027C73.9069 55.4584 74.3972 54.0568 74.7241 52.6267C74.9034 51.8404 75.283 50.282 76.0423 47.1629C76.7145 44.4025 77.0493 43.0247 77.0968 42.8869C77.4474 41.8797 77.6161 40.8273 77.8877 39.7987C78.1038 38.9767 78.2726 38.3686 77.8877 37.8982C77.6003 37.5466 77.0177 37.2829 76.5695 37.4231C76.0159 37.5965 76.0238 38.2735 75.515 39.7987C75.2461 40.6064 74.8955 41.3665 74.1969 42.8869C74.0914 43.1149 73.7013 43.9583 73.1424 45.0249C72.6019 46.0559 71.819 47.4599 70.7697 49.0634C70.0342 50.1918 69.4015 51.1586 68.3971 52.3892C68.1361 52.7099 66.5332 54.6459 63.9154 56.4276C63.1087 56.9764 62.4497 57.3446 62.07 57.1403C61.9277 57.0619 61.7115 56.8433 61.8064 55.2398C61.8908 53.8454 62.07 53.1018 62.07 53.1018C62.679 50.5885 62.3679 50.5718 63.1245 47.4005C63.7309 44.8657 63.9866 44.6401 64.4427 42.4118C64.8882 40.2334 65.1624 39.8343 64.9699 39.086C64.8803 38.7392 64.7274 38.1358 64.1791 37.8982C63.6861 37.6844 63.0191 37.8293 62.5973 38.1358C61.8038 38.7083 62.07 39.6965 61.8064 41.4616C61.701 42.1766 61.6851 41.8203 61.0155 44.3122C60.7598 45.2672 60.4883 46.3885 59.961 48.5882C59.2519 51.5411 59.2123 51.7953 59.1701 52.1516C59.0831 52.907 59.1121 53.9214 59.1701 55.9525C59.2044 57.1474 59.2519 57.8173 59.6974 58.5656C59.9083 58.9196 60.2853 59.5325 61.0155 59.7534C61.6693 59.9506 62.2994 59.7415 62.8609 59.5158C64.9647 58.6678 66.4568 57.4349 67.079 56.9027C67.9278 56.1782 68.8822 55.3539 69.9789 54.052C71.7636 51.9354 72.37 50.4032 72.6151 50.4887C72.9262 50.598 72.2961 53.1778 71.5606 55.2398C71.4789 55.4726 71.0044 56.7934 70.7697 58.5656C70.6195 59.7011 70.6696 60.2641 71.0334 60.4661C71.4077 60.6751 72.0061 60.4423 72.3515 60.2285Z" fill="white" stroke="white" stroke-width="3" stroke-miterlimit="10"/>
<path d="M39.8357 70.1941C40.5475 67.3458 41.3568 64.5141 41.9447 61.642C42.8832 57.0667 43.5766 55.0855 43.2628 54.9905C42.9702 54.9026 42.3296 56.6177 41.1538 58.3163C37.5395 63.5425 31.1755 65.2957 30.6087 65.4429C29.2089 65.8088 23.8889 67.1225 18.2183 64.7303C16.6154 64.0556 11.9861 62.1005 10.3095 57.6036C8.4667 52.6624 11.4457 48.0182 12.1548 46.9135C13.1487 45.3623 13.4071 45.683 15.0547 43.3502C17.2218 40.281 18.3791 37.5372 19.0091 35.7484C20.2904 32.1162 20.96 30.287 20.0637 28.3841C19.1067 26.3483 17.1084 25.1724 16.1092 24.5832C13.5863 23.0985 11.3139 22.9227 11.364 22.6828C11.4167 22.4286 13.9923 22.355 16.6365 23.1579C17.7859 23.5071 21.7693 24.8683 23.2272 28.1466C24.3713 30.7146 23.4117 33.2398 21.6454 37.8864C21.3686 38.6157 20.2693 41.4426 18.2183 45.0131C16.0091 48.8615 15.002 49.5552 14.5275 51.9022C14.3219 52.9214 13.7261 55.8718 15.3184 58.3163C17.9731 62.3904 25.4232 63.2432 30.6087 61.642C34.9797 60.2927 37.4367 57.2924 40.0993 54.0402C42.6829 50.8855 44.0168 47.916 45.1082 45.4882C46.1996 43.0628 46.8165 41.0673 48.0081 37.1737C48.8016 34.5844 49.8324 31.0281 50.908 26.7212H45.6355C44.3253 26.7212 43.2628 25.7639 43.2628 24.5832C43.2628 23.4026 44.3253 22.4452 45.6355 22.4452H191.949C192.191 21.4784 192.544 20.0863 193.003 18.4068C193.412 16.9078 193.746 15.853 194.058 14.8434C195.104 11.4487 195.444 10.7266 195.639 10.3298C196.309 8.9734 196.989 8.03268 197.221 7.71673C197.999 6.66435 198.682 5.99682 199.594 5.10361C201.067 3.66164 202.18 2.82307 203.021 2.25293C204.186 1.46424 205.206 0.782455 205.657 1.06515C206.153 1.37635 205.678 2.67103 205.657 2.72804C205.159 4.05598 204.112 4.42657 202.494 5.81628C201.091 7.02069 200.245 8.14433 199.857 8.66695C198.66 10.2776 198.057 11.7172 197.748 12.4679C197.377 13.3682 197.147 14.1759 196.694 15.7936C196.393 16.865 196.198 17.6656 195.903 18.8819C195.687 19.7751 195.399 20.989 195.08 22.4452H277.627C278.938 22.4452 280 23.4026 280 24.5832C280 25.7639 278.938 26.7212 277.627 26.7212H250.737C250.874 27.2486 250.975 27.9423 251.001 28.8593C251.096 32.2848 250.055 35.0215 249.419 36.4611C247.561 40.6777 244.953 43.4048 243.619 44.7755C242.57 45.854 240.738 47.7141 237.82 49.5267C236.209 50.5268 234.089 51.8452 230.965 52.8525C228.013 53.8051 226.46 53.7385 225.693 54.9905C225.329 55.5867 225.208 56.373 225.956 58.7914C227.048 62.3215 228.603 64.8562 229.12 65.6805C230.644 68.1131 231.872 70.0682 234.129 72.3321C236.842 75.0545 239.42 76.6129 241.774 78.0334C243.192 78.8886 245.523 80.2807 248.892 81.5968C252.243 82.9057 253.919 83.559 256.274 83.7348C258.383 83.8916 260.489 84.3358 262.601 84.2099C262.98 84.1885 264.051 84.1125 264.973 84.685C265.595 85.0722 266.231 85.8063 266.028 86.3479C265.843 86.842 265.013 87.0012 264.71 87.0606C255.38 88.8541 243.619 83.0221 243.619 83.0221C239.082 80.7725 234.922 78.7105 230.702 74.4701C224.633 68.3768 218.288 57.6677 222.266 52.8525C222.339 52.7622 222.579 52.5223 222.896 52.2443C225.237 50.1966 228.089 49.7904 229.384 49.5267C232.945 48.8021 235.447 46.9563 238.083 45.0131C239.728 43.7992 242.85 41.445 244.674 37.4113C245.626 35.3042 247.471 31.2277 245.465 28.6217C244.769 27.7166 243.844 27.2961 240.414 26.7212H194.065C193.955 27.1964 193.865 27.5955 193.794 27.909C193.298 30.0969 193.288 30.2347 192.739 32.6602C192.352 34.3706 192.07 35.6177 191.685 37.1737C191.115 39.478 190.992 39.7512 190.367 42.1624C189.091 47.0917 189.539 46.227 188.785 48.814C188.785 48.814 188.063 51.3012 187.73 54.7529C187.673 55.3539 187.58 56.4894 188.258 56.8909C188.722 57.1665 189.463 57.043 190.367 56.8909C191.411 56.7151 191.661 56.499 191.949 56.6534C192.502 56.9503 192.523 58.2497 191.949 59.0289C190.902 60.4448 187.19 60.1549 185.621 58.5538C184.62 57.5323 184.683 56.1711 185.094 53.3276C186.009 47.0062 187.203 42.8751 187.203 42.8751C187.947 39.5921 188.738 36.2639 189.576 32.8977C190.095 30.8167 190.622 28.7595 191.158 26.7212H55.0812C54.9046 27.4149 55.047 28.2725 54.0715 32.6602C53.6735 34.4442 53.2807 35.9076 52.4898 38.8366C51.5381 42.3691 51.5618 42.0175 51.1716 43.5878C50.278 47.1939 50.4862 47.7141 49.5899 51.9022C49.4212 52.6885 49.5108 52.2206 48.0081 58.3163C46.8007 63.2123 46.6267 63.9915 46.4264 64.9678C46.0177 66.9609 46.0151 67.2793 45.8464 68.4148C45.733 69.1631 45.6408 69.6928 45.6065 69.8853C45.1478 72.5673 44.9184 73.9095 45.1082 75.1828C45.3165 76.5796 45.8807 77.6652 46.69 79.2212C47.3622 80.5135 47.5995 80.6371 48.0081 81.5968C48.19 82.0244 48.8333 83.6208 48.799 85.6352C48.7516 88.3244 47.5231 90.2605 46.69 91.5742C46.1733 92.389 44.9448 94.1564 42.7356 95.8502C42.1108 96.33 39.4007 98.3588 35.0904 99.4135C33.5482 99.7912 29.8126 100.663 25.3362 99.6511C21.9038 98.8766 19.7763 97.3872 16.9001 95.3751C12.8614 92.5505 10.4465 89.6856 8.46406 87.2981C8.3507 87.1604 7.71536 86.3313 6.90339 85.2362C6.2575 84.3667 5.76452 83.6992 5.30053 83.0221C4.72846 82.1836 3.97185 80.991 3.19152 79.4588C3.19152 79.4588 1.66512 77.3445 1.0825 74.2325C0.984959 73.7099 0.88478 72.9782 1.34613 72.3321C1.88656 71.5767 3.05443 71.1348 3.9824 71.3819C4.68628 71.5695 5.06327 72.104 5.82779 73.5199C6.83221 75.3847 7.41746 76.7554 7.67318 77.3208C8.31379 78.7271 9.24176 79.922 11.1003 82.3095C12.8956 84.6185 14.4352 86.2196 14.7911 86.5855C16.0565 87.892 17.4406 89.3197 19.5364 90.8615C20.7702 91.769 22.0962 92.7429 23.7544 93.4746C24.5743 93.8357 30.6325 96.5391 36.1449 93.7122C36.7222 93.4152 40.9429 91.1751 41.6811 87.0606C42.0765 84.8632 41.3515 82.8416 41.1538 82.3095C40.7716 81.2761 40.0782 80.8437 39.5721 79.4588C39.2425 78.5537 39.0949 77.6819 39.0448 76.6081C38.9183 73.8715 39.4982 71.5458 39.8357 70.1941Z" fill="white" stroke="white" stroke-miterlimit="10"/>
</svg>
