<svg width="548" height="158" viewBox="0 0 548 158" fill="none" xmlns="http://www.w3.org/2000/svg">
<path d="M0 0H138.983C138.975 27.9133 138.923 55.8546 138.827 83.8238C138.771 99.8632 132.95 113.433 121.365 124.533C106.439 138.817 89.2383 149.972 69.7618 158H68.4519C41.761 147.155 7.64316 125.682 0 96.2483V0ZM134.536 3.72258L3.85763 3.73455C3.33687 3.73455 3.07649 3.9899 3.07649 4.50061C3.00439 29.9881 2.99637 55.4756 3.05246 80.963C3.06848 88.4082 3.52114 93.8464 4.41044 97.2777C11.1643 123.348 45.4624 143.864 68.0433 153.715C68.339 153.843 68.6581 153.91 68.9807 153.91C69.3033 153.91 69.6224 153.843 69.9181 153.715C92.5591 143.983 126.256 123.443 133.323 97.7326C134.284 94.2055 134.765 88.6516 134.765 81.0708C134.741 55.3359 134.737 29.625 134.753 3.93803C134.753 3.88089 134.73 3.82609 134.689 3.78568C134.649 3.74528 134.594 3.72258 134.536 3.72258Z" fill="white"/>
<path d="M126.496 87.6779C126.484 112.934 91.9821 133.618 71.6123 143.72C68.2955 145.372 68.2234 144.534 64.7623 142.93C45.7746 134.12 20.0691 117.315 13.147 96.4397C12.1696 93.4952 11.6808 89.8005 11.6808 85.3558C11.6568 61.0573 11.6488 36.7748 11.6568 12.5082C11.6568 12.0613 11.8771 11.8379 12.3178 11.8379H125.884C126.316 11.8379 126.533 12.0573 126.533 12.4962C126.533 37.5289 126.521 62.5894 126.496 87.6779ZM39.7178 50.3324C36.4971 53.3648 33.693 56.3213 31.3055 59.202C30.5283 60.1381 30.1033 61.3149 30.1037 62.5296L30.2119 105.86C30.2119 106.307 30.4322 106.53 30.8729 106.53H76.8039C77.1736 106.53 77.5281 106.384 77.7894 106.123L110.681 73.7093C111.074 73.3183 111.274 72.8474 111.282 72.2968L111.366 27.2668C111.368 27.1652 111.349 27.0643 111.311 26.97C111.273 26.8757 111.217 26.7898 111.145 26.7174C111.074 26.645 110.988 26.5875 110.894 26.5482C110.8 26.509 110.699 26.4888 110.597 26.4888L65.7237 26.4529C65.3635 26.4531 65.0117 26.5616 64.7143 26.7641C62.7113 28.0888 60.9007 29.573 59.2823 31.2168C52.873 37.7044 46.3515 44.0763 39.7178 50.3324Z" fill="white"/>
<path d="M205.849 41.8578C201.186 30.9295 179.711 36.7827 185.347 42.8393C186.605 44.1879 188.716 45.1455 191.68 45.7121C204.575 48.1778 224.248 50.2486 223.707 66.7428C223.046 86.7681 195.994 87.6898 182.102 83.4525C173.221 80.7474 167.717 75.4328 166.299 66.3478C166.211 65.8132 166.443 65.5459 166.996 65.5459L181.189 65.5099C181.701 65.5099 182.062 65.7414 182.27 66.2042C185.876 74.1401 195.453 74.6548 202.796 72.9072C205.728 72.201 207.771 70.5492 207.567 67.5089C206.954 57.993 173.329 63.5349 169.003 46.2746C162.141 18.8401 219.416 15.4168 221.387 41.786C221.411 42.201 221.219 42.4084 220.811 42.4084L206.726 42.4324C206.301 42.4404 206.009 42.2488 205.849 41.8578Z" fill="white"/>
<path d="M257.488 38.4702C240.579 40.7325 238.512 64.9831 253.799 70.7405C262.824 74.1399 270.251 69.3401 273.664 60.9014C273.832 60.4785 274.14 60.267 274.589 60.267L288.085 60.2311C288.461 60.2311 288.625 60.4147 288.577 60.7817C287.215 71.323 282.288 78.5049 273.796 82.3272C264.698 86.4208 252.873 85.954 243.74 81.621C228.778 74.5229 224.271 55.5749 230.833 41.3549C237.755 26.3928 257.067 21.7366 271.428 26.5245C277.509 28.5593 285.885 34.6878 286.907 41.5345C286.934 41.7262 286.892 41.9217 286.789 42.0875C286.686 42.2534 286.528 42.3794 286.342 42.4442L274.084 46.4899C273.893 46.553 273.686 46.5468 273.499 46.4723C273.312 46.3978 273.157 46.2599 273.063 46.0829C269.754 40.0582 264.562 37.5206 257.488 38.4702Z" fill="white"/>
<path d="M334.633 71.8374L313.314 71.8015C313.176 71.8014 313.042 71.8441 312.93 71.9234C312.818 72.0028 312.734 72.115 312.689 72.2444L308.399 84.7767C308.354 84.9061 308.269 85.0182 308.157 85.0976C308.045 85.177 307.911 85.2196 307.774 85.2196H291.67C291.562 85.2211 291.455 85.196 291.359 85.1466C291.262 85.0973 291.18 85.0251 291.118 84.9364C291.056 84.8477 291.017 84.7453 291.005 84.6381C290.992 84.531 291.006 84.4223 291.045 84.3218L313.602 25.4309C313.65 25.3079 313.735 25.2022 313.844 25.1275C313.953 25.0528 314.083 25.0125 314.215 25.012L334.188 25C334.322 25.0015 334.453 25.0435 334.562 25.1205C334.672 25.1974 334.755 25.3057 334.801 25.4309L357.238 84.3577C357.277 84.4582 357.291 84.5669 357.279 84.674C357.266 84.7812 357.227 84.8836 357.165 84.9723C357.104 85.061 357.021 85.1332 356.925 85.1826C356.828 85.2319 356.721 85.257 356.613 85.2555L340.077 85.1956C339.939 85.1957 339.805 85.1531 339.693 85.0737C339.581 84.9943 339.497 84.8821 339.452 84.7527L335.258 72.2803C335.213 72.1509 335.128 72.0387 335.016 71.9594C334.904 71.88 334.77 71.8374 334.633 71.8374ZM316.426 59.9994C316.398 60.0861 316.39 60.1783 316.404 60.2685C316.419 60.3586 316.454 60.4441 316.508 60.5178C316.562 60.5915 316.633 60.6513 316.715 60.6923C316.797 60.7333 316.888 60.7543 316.979 60.7535L331.052 60.7056C331.144 60.7051 331.234 60.6827 331.316 60.6403C331.397 60.5978 331.468 60.5365 331.521 60.4615C331.573 60.3866 331.608 60.3 331.62 60.2092C331.633 60.1184 331.623 60.026 331.592 59.9395L324.478 38.9208C324.438 38.8071 324.364 38.7087 324.265 38.6395C324.166 38.5703 324.048 38.5338 323.927 38.5351C323.806 38.5365 323.689 38.5755 323.591 38.6469C323.494 38.7182 323.422 38.8182 323.384 38.9327L316.426 59.9994Z" fill="white"/>
<path d="M382.386 72.704L413.596 72.68C413.787 72.68 413.97 72.7557 414.106 72.8904C414.241 73.0251 414.317 73.2078 414.317 73.3982L414.305 84.3146C414.305 84.5051 414.229 84.6877 414.094 84.8224C413.958 84.9571 413.775 85.0328 413.584 85.0328L365.057 85.0448C364.866 85.0448 364.682 84.9691 364.547 84.8344C364.412 84.6997 364.336 84.517 364.336 84.3266L364.348 25.5673C364.348 25.3768 364.424 25.1942 364.559 25.0595C364.694 24.9248 364.878 24.8491 365.069 24.8491L380.992 24.8252C381.087 24.8252 381.181 24.8438 381.268 24.8799C381.356 24.916 381.435 24.9689 381.502 25.0355C381.569 25.1022 381.622 25.1814 381.658 25.2685C381.695 25.3557 381.713 25.4491 381.713 25.5434L381.665 71.9858C381.665 72.0801 381.684 72.1735 381.72 72.2606C381.756 72.3478 381.809 72.4269 381.876 72.4936C381.943 72.5603 382.023 72.6132 382.11 72.6493C382.198 72.6854 382.292 72.704 382.386 72.704Z" fill="white"/>
<path d="M439.433 37.9198L439.457 48.2616C439.457 48.4394 439.528 48.6099 439.654 48.7356C439.781 48.8613 439.952 48.9319 440.13 48.9319L470.583 48.9678C470.761 48.9678 470.932 49.0384 471.059 49.1641C471.185 49.2899 471.256 49.4604 471.256 49.6381L471.244 59.8842C471.244 60.062 471.173 60.2325 471.047 60.3582C470.92 60.4839 470.749 60.5545 470.571 60.5545L440.178 60.5425C440.09 60.5425 440.003 60.5599 439.921 60.5935C439.839 60.6272 439.765 60.6766 439.703 60.7388C439.64 60.8011 439.59 60.875 439.557 60.9563C439.523 61.0376 439.505 61.1248 439.505 61.2128L439.409 72.0215C439.408 72.1105 439.424 72.1989 439.457 72.2816C439.49 72.3644 439.539 72.4397 439.602 72.5032C439.665 72.5667 439.739 72.6172 439.822 72.6516C439.904 72.686 439.993 72.7037 440.082 72.7037L472.698 72.6798C472.876 72.6798 473.048 72.7504 473.174 72.8761C473.3 73.0018 473.371 73.1723 473.371 73.3501L473.455 84.3622C473.455 84.54 473.384 84.7105 473.258 84.8362C473.132 84.9619 472.96 85.0325 472.782 85.0325L422.777 85.0565C422.598 85.0565 422.427 84.9858 422.301 84.8601C422.175 84.7344 422.104 84.5639 422.104 84.3862L422.128 25.5072C422.128 25.3294 422.199 25.1589 422.325 25.0332C422.451 24.9075 422.623 24.8369 422.801 24.8369H472.758C472.936 24.8369 473.108 24.9075 473.234 25.0332C473.36 25.1589 473.431 25.3294 473.431 25.5072L473.419 36.5792C473.419 36.6672 473.402 36.7544 473.368 36.8357C473.334 36.917 473.284 36.9909 473.222 37.0532C473.159 37.1154 473.085 37.1648 473.003 37.1985C472.922 37.2322 472.834 37.2495 472.746 37.2495H440.106C439.928 37.2495 439.757 37.3201 439.63 37.4458C439.504 37.5715 439.433 37.742 439.433 37.9198Z" fill="white"/>
<path d="M498.031 63.7383L498.055 84.1466C498.055 84.3815 497.962 84.6068 497.795 84.7729C497.628 84.939 497.402 85.0324 497.166 85.0324H481.88C481.423 85.0324 481.195 84.8089 481.195 84.3621L481.183 25.7345C481.183 25.2637 481.419 25.0203 481.892 25.0043C497.33 24.6213 509.248 24.6133 517.644 24.9804C528.135 25.4352 537.413 32.617 537.269 43.5095C537.16 51.4693 533.267 57.8731 525.407 60.1713C525.261 60.2148 525.126 60.2922 525.016 60.397C524.905 60.5018 524.82 60.6309 524.77 60.7738C524.719 60.9166 524.704 61.0689 524.725 61.2181C524.746 61.3673 524.803 61.5091 524.89 61.6316L540.477 83.8234C541.046 84.6294 540.834 85.0324 539.84 85.0324L522.487 85.0443C522.134 85.0443 521.866 84.8967 521.682 84.6014L508.366 63.6904C508.259 63.5219 508.112 63.3831 507.937 63.2868C507.763 63.1906 507.567 63.14 507.369 63.1398L498.728 63.056C498.637 63.0544 498.547 63.0709 498.462 63.1045C498.378 63.138 498.301 63.188 498.236 63.2515C498.171 63.3151 498.12 63.3908 498.084 63.4744C498.049 63.5579 498.031 63.6477 498.031 63.7383ZM498.019 37.776L498.043 50.9666C498.046 51.1677 498.129 51.3595 498.273 51.5006C498.417 51.6416 498.61 51.7207 498.812 51.7207L511.911 51.7087C512.945 51.7069 513.967 51.528 514.921 51.1822C515.875 50.8365 516.741 50.3306 517.47 49.6936C518.198 49.0566 518.776 48.3009 519.169 47.4698C519.561 46.6387 519.762 45.7485 519.759 44.8501V43.7967C519.753 41.9858 518.92 40.2515 517.444 38.9745C515.968 37.6975 513.97 36.9824 511.887 36.986L498.788 36.998C498.686 36.9979 498.585 37.0182 498.491 37.0574C498.397 37.0966 498.312 37.1541 498.24 37.2265C498.169 37.299 498.112 37.3848 498.074 37.4792C498.036 37.5735 498.018 37.6744 498.019 37.776Z" fill="white"/>
<path d="M77.465 61.3807C77.4666 61.2335 77.4389 61.0875 77.3834 60.951C77.328 60.8146 77.2459 60.6905 77.1419 60.5858C77.038 60.4812 76.9143 60.3981 76.7779 60.3414C76.6415 60.2847 76.4952 60.2555 76.3474 60.2556L37.2663 60.3154C36.5613 60.3154 36.4371 60.0441 36.8938 59.5015C41.0278 54.7056 45.4863 50.3087 50.2693 46.3109C53.2737 43.7972 56.4463 44.0725 60.0876 44.1204C71.0156 44.2481 81.8915 44.3319 92.7153 44.3718C92.8746 44.3718 93.0275 44.4348 93.1402 44.5471C93.2529 44.6593 93.3162 44.8115 93.3162 44.9702L93.3642 84.6618C93.3642 84.8215 93.3334 84.9788 93.2736 85.1246C93.2138 85.2705 93.1261 85.402 93.0157 85.5116L78.847 99.6239C77.8376 100.629 77.3368 100.422 77.3448 99.0014L77.465 61.3807Z" fill="white"/>
<path d="M62.0539 73.8979L45.037 73.9275C44.3335 73.9287 43.7642 74.4977 43.7654 75.1985L43.794 91.5251C43.7952 92.2258 44.3666 92.7929 45.0701 92.7917L62.0869 92.7621C62.7904 92.7609 63.3598 92.1918 63.3585 91.4911L63.3299 75.1645C63.3287 74.4637 62.7574 73.8967 62.0539 73.8979Z" fill="white"/>
<path d="M280.525 102.484H279.756C278.966 102.484 278.326 103.122 278.326 103.909V127.585C278.326 128.371 278.966 129.009 279.756 129.009H280.525C281.315 129.009 281.955 128.371 281.955 127.585V103.909C281.955 103.122 281.315 102.484 280.525 102.484Z" fill="white"/>
<path d="M324.029 114.096C323.885 118.062 323.909 122.02 324.101 125.97C324.157 127.143 323.901 128.024 323.332 128.615C323.104 128.855 322.809 129.022 322.486 129.095C322.162 129.168 321.824 129.143 321.514 129.023C321.205 128.904 320.938 128.695 320.748 128.424C320.558 128.153 320.454 127.832 320.448 127.502L320.291 114.862C320.283 114.455 320.119 114.072 319.835 113.796L318.441 112.444C318.361 112.365 318.298 112.269 318.258 112.164C318.218 112.06 318.201 111.947 318.208 111.835C318.214 111.723 318.245 111.613 318.298 111.514C318.35 111.415 318.424 111.328 318.513 111.259L319.787 110.313C319.903 110.223 319.998 110.109 320.065 109.978C320.131 109.848 320.168 109.705 320.171 109.559C320.315 105.122 322.647 102.704 327.165 102.305C328.207 102.21 329.02 102.437 329.605 102.988C329.853 103.217 330.024 103.517 330.097 103.846C330.169 104.175 330.138 104.519 330.008 104.83C329.879 105.141 329.657 105.406 329.372 105.588C329.087 105.77 328.753 105.861 328.415 105.848C325.856 105.753 322.815 106.243 324.149 109.751C324.309 110.174 324.614 110.401 325.062 110.433L328.235 110.648C328.337 110.656 328.437 110.684 328.528 110.73C328.62 110.776 328.701 110.841 328.767 110.919C328.833 110.997 328.882 111.087 328.913 111.185C328.943 111.282 328.954 111.385 328.944 111.486L328.848 112.647C328.8 113.182 328.507 113.445 327.971 113.437L324.762 113.401C324.289 113.401 324.045 113.633 324.029 114.096Z" fill="white"/>
<path d="M473.804 102.436L473.396 102.437C472.52 102.438 471.811 103.147 471.812 104.019L471.853 127.408C471.855 128.281 472.566 128.987 473.442 128.985L473.851 128.985C474.727 128.983 475.436 128.275 475.435 127.402L475.394 104.013C475.392 103.141 474.681 102.434 473.804 102.436Z" fill="white"/>
<path d="M214.934 112.108C216.544 111.127 217.554 110.301 219.393 109.978C230.965 107.943 228.466 121.852 228.322 128.148C228.306 128.738 228.005 129.002 227.42 128.938L225.533 128.734C225.013 128.678 224.756 128.391 224.764 127.872C224.812 122.055 224.772 118.361 224.644 116.788C224.26 111.941 217.013 112.659 215.078 115.963C213.48 118.692 214.009 124.545 214.045 128.124C214.046 128.233 214.026 128.341 213.984 128.441C213.943 128.542 213.881 128.633 213.803 128.708C213.726 128.783 213.633 128.842 213.532 128.879C213.431 128.916 213.323 128.932 213.216 128.926L211.1 128.806C210.66 128.782 210.439 128.547 210.439 128.1L210.5 103.55C210.499 103.384 210.551 103.222 210.649 103.088C210.746 102.955 210.883 102.857 211.04 102.808C212.194 102.441 213.047 102.481 213.6 102.928C213.985 103.247 214.145 103.897 214.081 104.879C213.929 107.145 213.925 109.403 214.069 111.653C214.076 111.751 214.108 111.844 214.161 111.926C214.215 112.008 214.288 112.074 214.375 112.12C214.461 112.165 214.558 112.188 214.656 112.186C214.754 112.184 214.849 112.157 214.934 112.108Z" fill="white"/>
<path d="M406.457 112.467C410.904 108.709 419.809 108.338 420.241 116.022C420.474 120.108 420.482 124.206 420.265 128.315C420.241 128.81 419.981 129.03 419.484 128.974L417.537 128.758C417.34 128.737 417.157 128.643 417.026 128.495C416.895 128.346 416.824 128.154 416.828 127.956C416.925 122.869 418.367 113.82 412.706 113.365C404.655 112.695 405.772 122.953 406.085 127.801C406.099 128.038 406.027 128.273 405.881 128.464C405.736 128.654 405.527 128.788 405.292 128.842C404.154 129.105 403.353 128.97 402.888 128.435C402.6 128.108 402.451 127.446 402.443 126.448C402.403 118.771 402.431 111.099 402.528 103.43C402.529 103.32 402.553 103.212 402.598 103.111C402.642 103.011 402.707 102.92 402.788 102.845C402.869 102.77 402.964 102.712 403.068 102.675C403.172 102.638 403.283 102.622 403.393 102.628L405.484 102.736C405.909 102.76 406.117 102.983 406.109 103.406L405.88 112.192C405.864 112.711 406.057 112.803 406.457 112.467Z" fill="white"/>
<path d="M171.959 109.978C171.695 111.343 172.464 112.384 174.266 113.102C176.606 114.036 178.961 115.001 181.333 115.999C187.606 118.632 186.524 126.532 180.311 128.387C176.97 129.393 166.046 129.154 166.587 123.468C166.612 123.236 166.7 123.015 166.841 122.829C166.983 122.643 167.173 122.499 167.391 122.413C167.609 122.326 167.846 122.301 168.077 122.339C168.308 122.378 168.524 122.478 168.702 122.63C171.514 125.072 180.864 128.316 180.996 121.493C181.004 121.252 180.933 121.013 180.792 120.811C177.703 116.286 169.892 118.465 167.885 112.24C166.671 108.494 168.943 105.406 172.608 104.328C174.627 103.742 185.936 103.287 184.554 107.704C184.477 107.955 184.346 108.187 184.168 108.381C183.99 108.576 183.771 108.728 183.526 108.828C183.281 108.928 183.016 108.972 182.751 108.958C182.486 108.943 182.228 108.871 181.994 108.745C179.482 107.393 172.788 105.848 171.959 109.978Z" fill="white"/>
<path d="M345.661 107.392L338.895 107.177C338.712 107.171 338.539 107.093 338.413 106.961C338.287 106.829 338.219 106.653 338.222 106.471L338.27 104.747C338.273 104.565 338.348 104.391 338.478 104.264C338.609 104.136 338.784 104.065 338.967 104.065L357.402 104.053C357.498 104.053 357.592 104.072 357.68 104.11C357.768 104.148 357.847 104.203 357.912 104.273C357.978 104.342 358.028 104.425 358.06 104.514C358.092 104.604 358.105 104.7 358.099 104.795L357.955 106.77C357.942 106.948 357.862 107.114 357.73 107.234C357.598 107.355 357.424 107.42 357.246 107.416L350.564 107.237C350.47 107.233 350.377 107.249 350.29 107.282C350.202 107.316 350.123 107.367 350.055 107.431C349.988 107.496 349.935 107.574 349.898 107.66C349.861 107.745 349.843 107.838 349.843 107.931L349.867 128.124C349.867 128.298 349.802 128.466 349.684 128.595C349.566 128.723 349.404 128.803 349.23 128.818L347.151 128.998C347.054 129.006 346.957 128.994 346.866 128.963C346.774 128.932 346.69 128.882 346.619 128.817C346.547 128.751 346.491 128.672 346.452 128.584C346.413 128.495 346.393 128.4 346.394 128.303L346.334 108.087C346.334 107.906 346.264 107.733 346.138 107.604C346.012 107.474 345.841 107.398 345.661 107.392Z" fill="white"/>
<path d="M202.111 114.323C194.66 108.733 187.354 121.684 195.886 125.347C198.37 126.408 200.877 125.87 203.409 123.731C203.543 123.618 203.714 123.556 203.89 123.556C204.066 123.556 204.236 123.618 204.37 123.731C205.524 124.689 205.861 126.197 204.406 127.118C198.878 130.578 191.235 129.105 189 123.025C185.419 113.258 195.97 106.483 204.286 111.558C204.545 111.717 204.747 111.954 204.863 112.236C204.98 112.517 205.005 112.828 204.935 113.126C204.471 114.993 203.529 115.392 202.111 114.323Z" fill="white"/>
<path d="M251.852 119.386C251.852 121.979 250.817 124.467 248.976 126.301C247.134 128.135 244.637 129.165 242.033 129.165C239.429 129.165 236.932 128.135 235.091 126.301C233.249 124.467 232.215 121.979 232.215 119.386C232.215 116.792 233.249 114.305 235.091 112.471C236.932 110.637 239.429 109.606 242.033 109.606C244.637 109.606 247.134 110.637 248.976 112.471C250.817 114.305 251.852 116.792 251.852 119.386ZM248.234 119.422C248.234 117.768 247.575 116.181 246.4 115.012C245.226 113.842 243.634 113.185 241.973 113.185C240.313 113.185 238.72 113.842 237.546 115.012C236.372 116.181 235.712 117.768 235.712 119.422C235.712 121.076 236.372 122.662 237.546 123.831C238.72 125.001 240.313 125.658 241.973 125.658C243.634 125.658 245.226 125.001 246.4 123.831C247.575 122.662 248.234 121.076 248.234 119.422Z" fill="white"/>
<path d="M273.988 119.374C273.988 121.971 272.952 124.461 271.109 126.298C269.265 128.134 266.765 129.165 264.157 129.165C261.55 129.165 259.05 128.134 257.206 126.298C255.363 124.461 254.327 121.971 254.327 119.374C254.327 116.777 255.363 114.287 257.206 112.451C259.05 110.615 261.55 109.583 264.157 109.583C266.765 109.583 269.265 110.615 271.109 112.451C272.952 114.287 273.988 116.777 273.988 119.374ZM270.407 119.434C270.407 117.777 269.746 116.188 268.569 115.016C267.393 113.844 265.797 113.186 264.133 113.186C262.47 113.186 260.874 113.844 259.698 115.016C258.521 116.188 257.86 117.777 257.86 119.434C257.86 121.091 258.521 122.68 259.698 123.852C260.874 125.024 262.47 125.682 264.133 125.682C265.797 125.682 267.393 125.024 268.569 123.852C269.746 122.68 270.407 121.091 270.407 119.434Z" fill="white"/>
<path d="M315.593 119.374C315.593 121.964 314.559 124.449 312.72 126.28C310.881 128.112 308.387 129.141 305.786 129.141C303.186 129.141 300.691 128.112 298.852 126.28C297.013 124.449 295.98 121.964 295.98 119.374C295.98 116.783 297.013 114.299 298.852 112.467C300.691 110.635 303.186 109.606 305.786 109.606C308.387 109.606 310.881 110.635 312.72 112.467C314.559 114.299 315.593 116.783 315.593 119.374ZM312.035 119.434C312.035 117.776 311.375 116.187 310.198 115.015C309.022 113.844 307.426 113.185 305.762 113.185C304.099 113.185 302.503 113.844 301.326 115.015C300.15 116.187 299.489 117.776 299.489 119.434C299.489 121.091 300.15 122.68 301.326 123.852C302.503 125.023 304.099 125.682 305.762 125.682C307.426 125.682 309.022 125.023 310.198 123.852C311.375 122.68 312.035 121.091 312.035 119.434Z" fill="white"/>
<path d="M363.422 121.875C364.688 124.716 366.863 126.049 369.948 125.873C371.919 125.753 373.481 124.473 375.416 124.149C375.707 124.098 376.006 124.148 376.264 124.29C376.522 124.432 376.723 124.658 376.835 124.931C376.947 125.204 376.963 125.507 376.88 125.792C376.796 126.076 376.619 126.324 376.377 126.496C370.693 130.457 361.596 129.715 359.913 122.127C356.729 107.859 377.783 104.866 378.12 118.811C378.152 120.168 377.487 120.842 376.125 120.834L364.107 120.822C363.983 120.821 363.861 120.851 363.751 120.91C363.642 120.968 363.549 121.054 363.481 121.159C363.413 121.263 363.372 121.384 363.361 121.509C363.351 121.634 363.372 121.76 363.422 121.875ZM363.663 117.997L374.551 117.973C374.599 117.973 374.644 117.954 374.678 117.921C374.712 117.887 374.731 117.841 374.731 117.794V117.698C374.728 116.42 374.151 115.196 373.125 114.294C372.1 113.392 370.711 112.885 369.263 112.886H368.951C368.232 112.886 367.52 113.012 366.855 113.255C366.191 113.498 365.588 113.855 365.08 114.304C364.572 114.753 364.17 115.286 363.896 115.873C363.621 116.459 363.481 117.087 363.483 117.722V117.817C363.483 117.865 363.502 117.911 363.535 117.944C363.569 117.978 363.615 117.997 363.663 117.997Z" fill="white"/>
<path d="M387.049 124.796C389.493 126.559 392.18 126.28 395.113 123.958C395.42 123.715 395.806 123.593 396.197 123.613C396.589 123.633 396.96 123.795 397.24 124.069C397.52 124.342 397.69 124.707 397.719 125.097C397.748 125.486 397.633 125.873 397.396 126.184C394.38 130.098 386.16 129.416 383.227 126.268C379.153 121.887 379.634 113.879 385.294 110.887C389.068 108.9 392.978 109.287 397.023 112.048C397.16 112.14 397.26 112.276 397.308 112.432C397.356 112.589 397.349 112.758 397.288 112.91L396.615 114.562C396.564 114.689 396.484 114.803 396.381 114.894C396.278 114.985 396.156 115.051 396.023 115.087C395.89 115.123 395.751 115.128 395.616 115.101C395.481 115.074 395.354 115.017 395.245 114.933C387.566 109.008 379.418 119.29 387.049 124.796Z" fill="white"/>
<path d="M430.853 111.677C434.663 109.331 440.804 108.733 443.039 113.09C444.733 116.393 443.94 123.695 443.844 127.98C443.841 128.214 443.746 128.437 443.58 128.603C443.414 128.768 443.19 128.863 442.955 128.866L441.188 128.878C441.078 128.878 440.97 128.856 440.868 128.814C440.767 128.771 440.675 128.709 440.598 128.631C440.52 128.553 440.46 128.461 440.419 128.359C440.378 128.258 440.357 128.149 440.359 128.04C440.399 122.414 440.351 118.735 440.215 117.004C439.842 112.395 433.497 112.515 431.13 115.244C428.99 117.71 429.796 124.736 429.772 128.052C429.772 128.634 429.479 128.925 428.894 128.925L426.972 128.902C426.491 128.894 426.25 128.65 426.25 128.171L426.238 111.067C426.234 110.792 426.332 110.526 426.515 110.32C426.697 110.114 426.95 109.983 427.224 109.953C428.498 109.802 429.399 110.289 429.928 111.414C430.136 111.845 430.445 111.932 430.853 111.677Z" fill="white"/>
<path d="M467.35 119.362C467.35 121.952 466.317 124.437 464.478 126.269C462.639 128.1 460.145 129.129 457.544 129.129C454.943 129.129 452.449 128.1 450.61 126.269C448.771 124.437 447.738 121.952 447.738 119.362C447.738 116.772 448.771 114.287 450.61 112.456C452.449 110.624 454.943 109.595 457.544 109.595C460.145 109.595 462.639 110.624 464.478 112.456C466.317 114.287 467.35 116.772 467.35 119.362ZM463.853 119.422C463.853 117.758 463.19 116.163 462.009 114.987C460.828 113.811 459.226 113.15 457.556 113.15C455.886 113.15 454.284 113.811 453.103 114.987C451.922 116.163 451.259 117.758 451.259 119.422C451.259 120.246 451.422 121.061 451.738 121.822C452.055 122.583 452.519 123.274 453.103 123.857C453.688 124.439 454.382 124.901 455.146 125.217C455.91 125.532 456.729 125.694 457.556 125.694C458.383 125.694 459.202 125.532 459.966 125.217C460.73 124.901 461.424 124.439 462.009 123.857C462.594 123.274 463.057 122.583 463.374 121.822C463.69 121.061 463.853 120.246 463.853 119.422Z" fill="white"/>
<path d="M499.653 119.362C499.653 121.958 498.618 124.449 496.774 126.285C494.931 128.121 492.43 129.153 489.823 129.153C487.216 129.153 484.715 128.121 482.872 126.285C481.028 124.449 479.993 121.958 479.993 119.362C479.993 116.765 481.028 114.274 482.872 112.438C484.715 110.602 487.216 109.57 489.823 109.57C492.43 109.57 494.931 110.602 496.774 112.438C498.618 114.274 499.653 116.765 499.653 119.362ZM496.096 119.445C496.096 117.779 495.431 116.18 494.248 115.002C493.065 113.823 491.46 113.161 489.787 113.161C488.114 113.161 486.509 113.823 485.326 115.002C484.142 116.18 483.478 117.779 483.478 119.445C483.478 121.112 484.142 122.71 485.326 123.889C486.509 125.067 488.114 125.729 489.787 125.729C491.46 125.729 493.065 125.067 494.248 123.889C495.431 122.71 496.096 121.112 496.096 119.445Z" fill="white"/>
<path d="M516.658 126.089C515.276 126.532 514.026 127.525 512.716 127.789C504.893 129.393 499.557 121.134 502.898 114.658C505.614 109.391 511.479 108.518 516.322 111.594C516.722 111.849 517.027 111.765 517.235 111.342C517.82 110.153 518.837 109.75 520.287 110.133C520.688 110.237 520.888 110.497 520.888 110.911C520.92 115.085 520.908 119.242 520.852 123.384C520.792 128.555 521.261 133.067 515.24 135.054C511.29 136.355 507.441 135.788 503.691 133.355C503.194 133.035 503.13 132.644 503.499 132.182L504.46 130.985C504.6 130.808 504.802 130.692 505.026 130.659C505.249 130.625 505.476 130.678 505.662 130.805C510.133 133.845 517.355 133.295 517.307 126.568C517.307 126.105 517.091 125.945 516.658 126.089ZM517.415 118.955C517.415 117.377 516.786 115.864 515.666 114.749C514.546 113.633 513.027 113.006 511.442 113.006C509.858 113.006 508.339 113.633 507.219 114.749C506.099 115.864 505.47 117.377 505.47 118.955C505.47 120.533 506.099 122.046 507.219 123.162C508.339 124.277 509.858 124.904 511.442 124.904C513.027 124.904 514.546 124.277 515.666 123.162C516.786 122.046 517.415 120.533 517.415 118.955Z" fill="white"/>
<path d="M532.714 123.611C532.737 123.677 532.779 123.735 532.837 123.775C532.894 123.816 532.962 123.838 533.032 123.838C533.103 123.838 533.171 123.816 533.228 123.775C533.285 123.735 533.328 123.677 533.351 123.611L538.086 111.258C538.195 110.962 538.388 110.707 538.638 110.528C539.552 109.858 540.513 109.738 541.523 110.169C542.003 110.376 542.14 110.72 541.931 111.198C539.159 117.71 536.507 124.241 533.976 130.793C532.165 135.477 528.86 136.806 524.061 134.779C523.947 134.73 523.844 134.66 523.757 134.572C523.671 134.484 523.602 134.379 523.557 134.265C523.511 134.15 523.488 134.027 523.49 133.904C523.492 133.781 523.519 133.659 523.569 133.546L524.193 132.157C524.273 131.981 524.416 131.842 524.594 131.766C524.772 131.691 524.973 131.685 525.155 131.75C528.339 132.887 532.305 130.9 530.659 127.178C528.287 121.807 526.036 116.393 523.905 110.935C523.745 110.504 523.889 110.229 524.338 110.109C526.152 109.63 527.342 110.301 528.039 112.048C529.601 115.942 531.16 119.797 532.714 123.611Z" fill="white"/>
</svg>
